<svg xmlns="http://www.w3.org/2000/svg" width="30" height="30"><g fill="none" fill-rule="evenodd"><circle cx="15" cy="15" r="15" fill="#FFDD67"/><path fill="#664E27" d="M23.85 16.2c-.2-.25-.55-.2-.95-.2H7.1c-.4 0-.75-.05-.95.2C4.2 18.7 6.5 26 15 26s10.8-7.3 8.85-9.8"/><path fill="#4C3526" d="M15.9 19.85c-.3 0-.75.25-.55 1 .1.35.6.8.6 1.4 0 1.2-1.9 1.2-1.9 0 0-.6.5-1 .6-1.4.15-.7-.3-1-.55-1-.8 0-2.05.85-2.05 2.3 0 1.6 1.35 2.9 3 2.9s3-1.3 3-2.9c-.05-1.4-1.35-2.25-2.15-2.3"/><path fill="#FF717F" d="M11.15 24.35c1.1.5 2.4.75 3.85.75 1.45 0 2.75-.3 3.85-.75-1.05-.55-2.35-.85-3.85-.85s-2.8.3-3.85.85"/><path fill="#FFF" d="M22.5 17H7.55c-1.05 0-1.05 2-.05 2h15c1 0 1-2 0-2"/><g fill="#664E27" transform="translate(6.5 8)"><circle cx="2.75" cy="2.5" r="2.5"/><circle cx="14.25" cy="2.5" r="2.5"/></g></g></svg>